# xmcd CD database file
#
# Track frame offsets:
#	150
#	25061
#	55065
#	90695
#	120126
#	154385
#	176232
#	198589
#	239459
#
# Disc length: 3370 seconds
#
# Revision: 0
# Processed by: cddbd v1.5.2PL0 Copyright (c) Steve Scherf et al.
# Submitted via: CDex 1.70beta2
#
DISCID=710d2809
DTITLE=SEDAJAZZ BIG BAND - HORN FLAKES
DYEAR=2012
DGENRE=Jazz
TTITLE0=Horn Flakes
TTITLE1=De Camino
TTITLE2=Sesiones de Barbas
TTITLE3=Epicuro
TTITLE4=Dissertation on Love
TTITLE5=A Sleeping Bee
TTITLE6=Upper Manhattan Medical Group - UMMG
TTITLE7=Fira de Monstres
TTITLE8=Two Bass Hit
EXTD=YEAR: 2012
EXTT0=
EXTT1=
EXTT2=
EXTT3=
EXTT4=
EXTT5=
EXTT6=
EXTT7=
EXTT8=
PLAYORDER=
